# xmcd CD database file
#
# Track frame offsets:
#	150
#	25198
#	58748
#	84244
#	107382
#	126765
#	155853
#	184311
#	204374
#	228192
#	259682
#	282040
#	300838
#
# Disc length: 4273 seconds
#
# Revision: 0
# Processed by: cddbd v1.5PL3 Copyright (c) Steve Scherf et al.
# Submitted via: CDex 1.51
#
DISCID=9f10af0d
DTITLE=Charlie Haden Quartet West - The Art of the Song
DYEAR=1999
DGENRE=Jazz
TTITLE0=Lonely Town
TTITLE1=Why did I choose you
TTITLE2=Moment Musical op 16 No 3 B minor
TTITLE3=In Love in Vain
TTITLE4=Ruth's Waltz
TTITLE5=Scenes from a Silver Screen
TTITLE6=I'm Goona Laugh You Right out of my Life
TTITLE7=You, My Love
TTITLE8=Prelude en La Mineur
TTITLE9=Folks Who Live on the Hill
TTITLE10=Easy on the Heart
TTITLE11=Theme for Charlie
TTITLE12=Wayfaring Stranger
EXTD=YEAR: 1999
EXTT0=
EXTT1=
EXTT2=
EXTT3=
EXTT4=
EXTT5=
EXTT6=
EXTT7=
EXTT8=
EXTT9=
EXTT10=
EXTT11=
EXTT12=
PLAYORDER=
